<?xml version="1.0" encoding="UTF-8" standalone="no"?>
<!-- Created with Inkscape (http://www.inkscape.org/) -->

<svg
   xmlns:dc="http://purl.org/dc/elements/1.1/"
   xmlns:cc="http://creativecommons.org/ns#"
   xmlns:rdf="http://www.w3.org/1999/02/22-rdf-syntax-ns#"
   xmlns:svg="http://www.w3.org/2000/svg"
   xmlns="http://www.w3.org/2000/svg"
   xmlns:sodipodi="http://sodipodi.sourceforge.net/DTD/sodipodi-0.dtd"
   xmlns:inkscape="http://www.inkscape.org/namespaces/inkscape"
   width="5"
   height="20"
   id="svg41281"
   version="1.1"
   inkscape:version="0.48.5 r10040"
   sodipodi:docname="Новый документ 8">
  <defs
     id="defs41283">
    <clipPath
       clipPathUnits="userSpaceOnUse"
       id="clipPath36358">
      <path
         inkscape:connector-curvature="0"
         d="m 0,6474 5440,0 L 5440,0 0,0 0,6474 z"
         id="path36360" />
    </clipPath>
    <clipPath
       clipPathUnits="userSpaceOnUse"
       id="clipPath36366">
      <path
         inkscape:connector-curvature="0"
         d="m 934,5050 12,0 0,-24 -12,0 0,24 z"
         id="path36368" />
    </clipPath>
    <clipPath
       clipPathUnits="userSpaceOnUse"
       id="clipPath36370">
      <path
         inkscape:connector-curvature="0"
         d="M 0,24 12,24 12,0 0,0 0,24 z"
         id="path36372" />
    </clipPath>
  </defs>
  <sodipodi:namedview
     id="base"
     pagecolor="#ffffff"
     bordercolor="#666666"
     borderopacity="1.0"
     inkscape:pageopacity="0.0"
     inkscape:pageshadow="2"
     inkscape:zoom="0.35"
     inkscape:cx="568.9286"
     inkscape:cy="-172.85718"
     inkscape:document-units="px"
     inkscape:current-layer="layer1"
     showgrid="false"
     fit-margin-top="0"
     fit-margin-left="0"
     fit-margin-right="0"
     fit-margin-bottom="0"
     inkscape:window-width="630"
     inkscape:window-height="424"
     inkscape:window-x="66"
     inkscape:window-y="96"
     inkscape:window-maximized="0" />
  <metadata
     id="metadata41286">
    <rdf:RDF>
      <cc:Work
         rdf:about="">
        <dc:format>image/svg+xml</dc:format>
        <dc:type
           rdf:resource="http://purl.org/dc/dcmitype/StillImage" />
        <dc:title></dc:title>
      </cc:Work>
    </rdf:RDF>
  </metadata>
  <g
     inkscape:label="Layer 1"
     inkscape:groupmode="layer"
     id="layer1"
     transform="translate(193.9286,-339.505)">
    <g
       transform="matrix(1.25,0,0,-1.25,-1366.4286,6647.005)"
       id="g36354">
      <g
         id="g36356"
         clip-path="url(#clipPath36358)">
        <g
           id="g36362">
          <g
             id="g36364" />
          <g
             id="g36374">
            <g
               style="opacity:0.53999299"
               clip-path="url(#clipPath36366)"
               id="g36376">
              <g
                 transform="matrix(1,0,0,-1,934,5050)"
                 id="g36378">
                <g
                   id="g36380">
                  <g
                     clip-path="url(#clipPath36370)"
                     id="g36382">
                    <g
                       transform="translate(6,16)"
                       id="g36384">
                      <path
                         inkscape:connector-curvature="0"
                         d="M 0,0 C -1.105,0 -2,0.896 -2,2 -2,3.105 -1.105,4 0,4 1.104,4 2,3.105 2,2 2,0.896 1.104,0 0,0 m 0,-6 c -1.105,0 -2,0.896 -2,2 0,1.105 0.895,2 2,2 1.104,0 2,-0.895 2,-2 0,-1.104 -0.896,-2 -2,-2 m 0,-2 c 1.104,0 2,-0.895 2,-2 0,-1.104 -0.896,-2 -2,-2 -1.105,0 -2,0.896 -2,2 0,1.105 0.895,2 2,2"
                         style="fill:#000000;fill-opacity:1;fill-rule:nonzero;stroke:none"
                         id="path36386" />
                    </g>
                  </g>
                </g>
              </g>
            </g>
          </g>
        </g>
      </g>
    </g>
  </g>
</svg>
